M48
; DRILL file {KiCad (5.1.9)-1} date 04/19/21 22:21:12
; FORMAT={-:-/ absolute / inch / decimal}
; #@! TF.CreationDate,2021-04-19T22:21:12+02:00
; #@! TF.GenerationSoftware,Kicad,Pcbnew,(5.1.9)-1
; #@! TF.FileFunction,Plated,1,2,PTH
FMAT,2
INCH
T1C0.0157
T2C0.0256
T3C0.0394
T4C0.0579
T5C0.1260
%
G90
G05
T1
X0.935Y-5.5413
X1.0236Y-4.1535
X1.0236Y-4.5965
X1.0433Y-5.374
X1.0531Y-1.4764
X1.1024Y-2.3622
X1.1024Y-5.5512
X1.1811Y-3.3071
X1.2205Y-3.6024
X1.3189Y-5.1575
X1.3284Y-3.4544
X1.3287Y-3.8571
X1.337Y-3.3465
X1.3374Y-4.1744
X1.3442Y-3.6971
X1.3583Y-4.9409
X1.3779Y-3.9382
X1.3791Y-3.8988
X1.3791Y-4.1327
X1.3862Y-3.5424
X1.3976Y-5.1378
X1.4161Y-3.2272
X1.4173Y-2.4606
X1.4173Y-2.7559
X1.4173Y-3.5039
X1.4173Y-3.9764
X1.4173Y-4.2126
X1.437Y-4.7047
X1.4567Y-2.3819
X1.4567Y-3.2283
X1.4567Y-4.0157
X1.4665Y-4.7326
X1.4764Y-2.0669
X1.4961Y-2.8346
X1.4961Y-4.3307
X1.5748Y-1.9685
X1.5748Y-3.9764
X1.6102Y-3.8937
X1.6142Y-4.4882
X1.6142Y-4.7283
X1.6339Y-2.3031
X1.6535Y-4.8189
X1.7323Y-3.0315
X1.811Y-3.0315
X1.811Y-4.0945
X1.8504Y-3.0551
X1.8661Y-4.6772
X1.8785Y-2.3031
X1.8996Y-3.1594
X1.9193Y-4.5472
X1.9291Y-1.9291
X1.939Y-4.2323
X1.9685Y-2.0079
X1.9685Y-2.3718
X1.9685Y-3.189
X1.9685Y-3.8642
X1.9685Y-4.1339
X2.0374Y-3.7992
X2.0374Y-4.0256
X2.0472Y-4.1732
X2.0472Y-4.2913
X2.0472Y-5.4724
X2.0645Y-1.4003
X2.0705Y-4.7638
X2.0866Y-3.0315
X2.126Y-1.4961
X2.126Y-1.9291
X2.126Y-3.2677
X2.1642Y-3.189
X2.1642Y-3.2776
X2.1642Y-3.4154
X2.1654Y-3.7795
X2.185Y-1.437
X2.2047Y-2.6772
X2.2047Y-3.5039
X2.2182Y-2.9633
X2.2244Y-2.5492
X2.2372Y-1.4399
X2.2441Y-3.3858
X2.2441Y-3.9764
X2.3228Y-2.7165
X2.3228Y-2.7559
X2.3622Y-2.6378
X2.3764Y-4.4538
X2.4016Y-2.4409
X2.4016Y-3.4646
X2.4348Y-4.2876
X2.4409Y-4.7244
X2.4409Y-5.4724
X2.4606Y-4.6654
X2.5197Y-3.2283
X2.5197Y-5.408
X2.5591Y-2.4803
X2.5591Y-3.189
X2.5984Y-3.8128
X2.6378Y-3.5433
X2.6378Y-3.9764
X2.6772Y-3.937
X2.7067Y-3.4941
X2.7141Y-4.0084
X2.7461Y-3.3858
X2.7461Y-3.9075
X2.8248Y-4.872
X2.8346Y-4.1929
X2.8346Y-4.2618
X2.8794Y-4.3784
X2.8966Y-2.0079
X2.9134Y-1.5748
X2.9134Y-4.7244
X2.9134Y-4.8661
X2.9528Y-1.6142
X2.9528Y-3.0315
X2.9733Y-4.4639
X2.9921Y-5.4724
X3.0315Y-2.2835
X3.0315Y-2.8346
X3.0315Y-3.4646
X3.0345Y-4.2871
X3.0644Y-5.0261
X3.0709Y-2.4016
X3.0709Y-2.4803
X3.0709Y-3.2283
X3.0773Y-4.288
X3.092Y-4.3979
X3.1576Y-2.0787
X3.189Y-4.5628
X3.2263Y-4.998
X3.2283Y-4.5628
X3.2677Y-1.5354
X3.2677Y-3.9764
X3.2677Y-4.2224
X3.2677Y-4.7244
X3.296Y-4.562
X3.3071Y-4.685
X3.3256Y-1.4665
X3.3393Y-4.2523
X3.3465Y-1.2992
X3.3465Y-2.0079
X3.3471Y-4.9994
X3.376Y-4.0453
X3.3766Y-4.8622
X3.3766Y-5.067
X3.3846Y-1.4579
X3.3858Y-1.1417
X3.3858Y-5.4724
X3.4252Y-1.6142
X3.4252Y-5.408
X3.4407Y-4.7858
X3.4449Y-1.3386
X3.4646Y-1.437
X3.4646Y-1.5256
X3.4646Y-2.4803
X3.4646Y-3.1535
X3.4646Y-3.2283
X3.5433Y-4.5276
X3.5512Y-4.7953
X3.6142Y-5.1575
X3.6417Y-2.6476
X3.6614Y-1.6929
X3.6614Y-1.8898
X3.6614Y-3.9764
X3.6614Y-4.7244
X3.7008Y-1.811
X3.7008Y-4.8031
X3.7402Y-3.189
X3.7402Y-3.9035
X3.7795Y-1.2598
X3.7795Y-2.3718
X3.7795Y-4.252
X3.7874Y-4.9134
X3.8091Y-3.9567
X3.8189Y-1.378
X3.8189Y-2.4803
X3.8189Y-4.2126
X3.8189Y-4.3701
X3.8583Y-3.2283
X3.8583Y-4.3307
X3.8681Y-4.2028
X3.8976Y-2.4803
X3.8976Y-3.0315
X3.9173Y-4.0157
X3.9178Y-2.53
X3.937Y-5.4724
X3.9567Y-3.9862
X3.9665Y-4.1339
X3.9764Y-2.9134
X4.0157Y-3.9764
X4.0157Y-4.7244
X4.0551Y-4.6535
X4.065Y-4.0157
X4.0846Y-4.9429
X4.1339Y-2.2835
X4.1437Y-4.7835
X4.1732Y-1.2598
X4.1732Y-1.6142
X4.1744Y-4.1327
X4.2126Y-1.7717
X4.2126Y-2.3642
X4.2126Y-3.2283
X4.2126Y-3.4646
X4.2126Y-4.3209
X4.2913Y-1.4567
X4.2913Y-2.5591
X4.2925Y-3.1902
X4.3209Y-5.1816
X4.3307Y-1.9291
X4.3307Y-4.7244
X4.3307Y-5.3937
X4.3307Y-5.4724
X4.3504Y-4.9429
X4.4094Y-3.8976
X4.4094Y-3.9764
X4.4094Y-5.0
X4.446Y-4.7894
X4.4646Y-5.081
X4.5079Y-1.437
X4.5079Y-1.5354
X4.5177Y-5.4823
X4.5234Y-2.5214
X4.5571Y-5.128
X4.5647Y-4.4021
X4.5669Y-2.4803
X4.5669Y-4.2913
X4.6063Y-3.2283
X4.6063Y-4.252
X4.6063Y-4.3701
X4.6063Y-5.1811
X4.6457Y-4.0354
X4.685Y-3.7402
X4.7638Y-1.5354
X4.7638Y-3.9764
X4.7717Y-3.3169
X4.7904Y-3.5799
X4.8031Y-4.252
X4.8031Y-4.6457
X4.8031Y-4.7244
X4.8524Y-4.0059
X4.8819Y-1.8504
X4.8819Y-2.4803
X4.9028Y-4.735
X4.9606Y-1.2992
X4.9606Y-1.811
X4.9672Y-1.4633
X4.9764Y-4.9272
X5.0Y-3.1496
X5.0Y-3.2283
X5.0157Y-4.9296
X5.0394Y-1.5354
X5.0492Y-5.689
X5.0551Y-4.9291
X5.0567Y-4.5472
X5.0689Y-4.8287
X5.0721Y-1.4633
X5.0787Y-1.8504
X5.0787Y-1.9685
X5.0799Y-1.5019
X5.0799Y-4.487
X5.1118Y-3.6938
X5.114Y-4.75
X5.1181Y-3.9764
X5.128Y-3.6319
X5.1459Y-5.3641
X5.1575Y-1.811
X5.1575Y-3.908
X5.1575Y-4.7244
X5.1811Y-5.3465
X5.187Y-3.4154
X5.1957Y-1.7335
X5.198Y-1.6523
X5.2128Y-5.402
X5.2362Y-1.5748
X5.2423Y-5.0225
X5.2446Y-4.9832
X5.252Y-4.9445
X5.2756Y-4.252
X5.2966Y-5.1406
X5.3055Y-5.1789
X5.3118Y-4.3178
X5.315Y-5.2565
X5.315Y-1.811
X5.315Y-3.2283
X5.315Y-4.2126
X5.3151Y-5.2171
X5.3538Y-4.2758
X5.3543Y-1.6142
X5.3543Y-2.408
X5.3543Y-2.4803
X5.3642Y-3.9173
X5.3937Y-4.878
X5.4134Y-4.124
X5.4331Y-4.2028
X5.4626Y-2.0866
X5.4724Y-4.2323
X5.5118Y-3.9764
X5.5118Y-4.7244
X5.513Y-2.046
X5.525Y-4.6535
X5.5413Y-2.5886
X5.5622Y-4.2311
X5.6102Y-4.7244
X5.6299Y-1.1417
X5.6398Y-3.5236
X5.6398Y-4.2028
X5.641Y-4.9929
X5.6693Y-1.4567
X5.6693Y-1.6421
X5.6761Y-3.0579
X5.6772Y-4.8189
X5.6887Y-5.0256
X5.6988Y-2.8543
X5.7087Y-1.5748
X5.7087Y-1.811
X5.7087Y-3.2283
X5.7165Y-4.7579
X5.7165Y-5.0551
X5.7267Y-2.4803
X5.7389Y-3.5918
X5.7579Y-4.8819
X5.7677Y-2.5886
X5.8071Y-4.1142
X5.8071Y-4.8819
X5.8268Y-1.4567
X5.8268Y-3.1535
X5.841Y-3.7812
X5.876Y-4.4291
X5.876Y-5.689
X5.9055Y-2.126
X5.9055Y-3.908
X5.9055Y-3.9764
X5.9055Y-4.9634
X5.9154Y-0.876
X5.9449Y-4.2028
X5.9449Y-4.252
X5.9485Y-1.6201
X5.9508Y-1.6594
X5.9606Y-5.7549
X5.9646Y-5.5413
X5.9744Y-5.7087
X5.9843Y-1.811
X5.9919Y-4.9333
X5.9921Y-5.6457
X5.9941Y-0.7874
X5.9941Y-3.9272
X6.0348Y-2.233
X6.0531Y-5.7352
X6.0612Y-3.2295
X6.063Y-1.4173
X6.063Y-4.3701
X6.063Y-4.8819
X6.0728Y-4.8169
X6.0925Y-3.1201
X6.0945Y-5.5748
X6.1017Y-3.0551
X6.1017Y-3.2283
X6.1024Y-1.4567
X6.1024Y-2.0079
X6.1024Y-2.4035
X6.1024Y-2.4803
X6.1024Y-3.937
X6.1024Y-4.3307
X6.126Y-5.6752
X6.1312Y-3.3957
X6.1319Y-3.908
X6.1421Y-2.2043
X6.1654Y-5.5433
X6.1799Y-1.8516
X6.1909Y-4.8917
X6.1992Y-5.6949
X6.2008Y-3.937
X6.2019Y-4.2326
X6.2106Y-2.0374
X6.2217Y-2.7571
X6.2402Y-4.8917
X6.25Y-5.0
X6.2598Y-2.5984
X6.2598Y-4.0157
X6.2598Y-4.7244
X6.2624Y-5.0373
X6.275Y-4.658
X6.2894Y-4.8917
X6.3228Y-5.685
X6.3287Y-4.9213
X6.3484Y-4.3307
X6.3583Y-5.0787
X6.361Y-5.6752
X6.3751Y-5.3579
X6.378Y-4.1831
X6.3791Y-2.5996
X6.3998Y-5.3272
X6.4075Y-4.2224
X6.4135Y-5.2718
X6.4173Y-4.8228
X6.4224Y-5.2211
X6.4272Y-3.2579
X6.437Y-4.311
X6.437Y-4.6752
X6.4567Y-2.4803
X6.4567Y-3.2283
X6.4665Y-5.1476
X6.4764Y-4.124
X6.4764Y-4.8819
X6.4764Y-5.4331
X6.4961Y-4.5472
X6.4982Y-4.1568
X6.502Y-4.7244
X6.5354Y-4.8819
X6.5413Y-4.6299
X6.5433Y-1.1496
X6.5433Y-1.2598
X6.5453Y-5.561
X6.5748Y-3.1988
X6.5748Y-4.7244
X6.576Y-3.1508
X6.5846Y-3.6811
X6.5846Y-5.4331
X6.5846Y-5.5217
X6.591Y-3.7851
X6.624Y-4.0256
X6.6339Y-2.6083
X6.6376Y-5.4195
X6.6437Y-5.1378
X6.6535Y-3.8976
X6.6535Y-3.9764
X6.6535Y-5.0
X6.6732Y-4.2815
X6.6929Y-4.2224
X6.7284Y-5.544
X6.7323Y-2.5591
X6.7323Y-3.1218
X6.7421Y-3.0217
X6.7717Y-4.252
X6.809Y-4.404
X6.811Y-4.0551
X6.811Y-4.2126
X6.8291Y-2.5453
X6.8504Y-1.2598
X6.8504Y-2.4053
X6.8504Y-2.4803
X6.8504Y-3.2283
X6.8504Y-3.3169
X6.8504Y-4.1732
X6.8504Y-4.3701
X6.8886Y-2.7547
X6.8898Y-1.378
X6.8898Y-2.0472
X6.8898Y-2.3718
X6.9291Y-4.065
X6.9685Y-1.811
X6.998Y-3.8718
X7.0392Y-3.9764
X7.047Y-3.5726
X7.0472Y-2.1654
X7.0472Y-4.6457
X7.0472Y-4.7244
X7.0571Y-4.4095
X7.0866Y-4.0551
X7.126Y-5.3937
X7.126Y-5.4724
X7.1555Y-4.9902
X7.1654Y-1.4173
X7.2047Y-1.378
X7.2047Y-2.4803
X7.2047Y-3.2283
X7.2205Y-5.6457
X7.2441Y-2.7165
X7.252Y-5.6142
X7.2835Y-3.158
X7.2835Y-5.5709
X7.313Y-3.4744
X7.4016Y-3.908
X7.4016Y-3.9764
X7.4016Y-4.7244
X7.4213Y-1.5256
X7.5197Y-4.2764
X7.5516Y-4.2445
X7.5618Y-4.3178
X7.5787Y-2.1457
X7.5886Y-1.5256
X7.5978Y-4.2818
X7.5984Y-1.7717
X7.5984Y-2.408
X7.5984Y-2.4803
X7.5984Y-3.2283
X7.6083Y-2.0374
X7.6608Y-1.5157
X7.6772Y-1.4567
X7.684Y-2.0866
X7.6845Y-2.3745
X7.7264Y-1.4469
X7.7892Y-3.9764
X7.7953Y-4.6535
X7.7953Y-4.7244
X7.799Y-1.6203
X7.8051Y-4.1535
X7.8346Y-4.0551
X7.8484Y-4.6218
X7.87Y-1.4133
X7.9134Y-1.6535
X7.9134Y-1.811
X7.9134Y-2.4409
X7.9134Y-4.8228
X7.926Y-1.512
X7.9528Y-1.7283
X7.9528Y-2.7559
X7.9528Y-2.874
X7.9528Y-3.2283
X7.9626Y-5.3128
X8.0315Y-2.7953
X8.058Y-2.5295
X8.0709Y-3.189
X8.1496Y-1.6142
X8.1496Y-3.9764
X8.1496Y-4.7244
X8.15Y-3.9035
X8.17Y-4.808
X8.189Y-2.9921
X8.1902Y-1.8516
X8.2382Y-2.1457
X8.2535Y-3.0551
X8.2677Y-1.8504
X8.2677Y-3.189
X8.2677Y-4.252
X8.2689Y-1.7311
X8.2972Y-5.5787
X8.3071Y-1.378
X8.3366Y-1.8504
X8.3465Y-1.7717
X8.3465Y-2.4803
X8.3465Y-4.3701
X8.4252Y-3.4646
X8.4252Y-5.5413
X8.4264Y-2.4421
X8.4547Y-5.5906
X8.4646Y-2.126
X8.5392Y-3.9764
X8.5433Y-2.5886
X8.5433Y-4.7244
X8.5728Y-2.5492
X8.5827Y-4.685
X8.6048Y-2.3745
X8.6122Y-4.5472
X8.622Y-2.6083
X8.622Y-4.0551
X8.6319Y-2.3128
X8.6602Y-2.5209
X8.6614Y-1.378
X8.662Y-2.5608
X8.6909Y-1.5453
X8.7008Y-1.3386
X8.7008Y-2.874
X8.7008Y-3.2283
X8.7008Y-3.3858
X8.7032Y-2.4386
X8.7342Y-2.5591
X8.7402Y-3.3465
X8.75Y-1.7421
X8.7751Y-2.5583
X8.7795Y-2.7953
X8.794Y-2.522
X8.7992Y-2.3031
X8.8201Y-3.158
X8.8976Y-3.9764
X8.8976Y-4.7244
X8.9173Y-2.5295
X8.937Y-3.8976
X8.9567Y-2.6083
X8.9764Y-2.5591
X9.0157Y-4.252
X9.0537Y-4.4061
X9.0551Y-3.2283
X9.0551Y-4.2126
X9.083Y-4.1848
X9.0945Y-4.3701
X9.1017Y-2.6083
X9.1339Y-1.4173
X9.1437Y-4.0453
X9.2028Y-2.4705
X9.252Y-2.5984
X9.252Y-3.9764
X9.2913Y-3.3858
X9.2913Y-4.6457
X9.2913Y-4.7244
X9.3307Y-2.5984
X9.3701Y-2.2047
X9.3799Y-4.0551
X9.409Y-2.2838
X9.4094Y-1.4173
X9.4094Y-2.0472
X9.4488Y-2.0866
X9.4488Y-2.4803
X9.4767Y-2.4409
X9.4882Y-1.3386
X9.4882Y-2.5984
X9.4882Y-2.874
X9.4882Y-3.1496
X9.4882Y-3.2283
X9.4882Y-4.8425
X9.4882Y-5.2756
X9.5264Y-2.7941
X9.5276Y-2.5591
X9.5276Y-4.8031
X9.5354Y-4.8819
X9.5669Y-5.0
X9.5669Y-5.4724
X9.5965Y-4.5374
X9.6075Y-2.7941
X9.6457Y-2.874
X9.6457Y-3.9764
X9.6654Y-3.4252
X9.6752Y-3.3169
X9.6752Y-4.7146
X9.685Y-3.0315
X9.685Y-3.1496
X9.7047Y-1.2795
X9.7244Y-2.9134
X9.7256Y-3.9382
X9.7662Y-3.1496
X9.7924Y-2.5984
X9.8228Y-3.1142
X9.8425Y-2.4803
X9.8524Y-3.0541
X9.8524Y-3.2185
X9.9213Y-5.561
X9.9225Y-2.4421
X9.9489Y-2.6083
X9.9606Y-5.4724
X9.9705Y-5.6004
X9.972Y-3.2874
X9.9803Y-4.7638
X9.9966Y-2.9039
X10.0Y-1.2795
X10.0Y-3.5433
X10.0Y-3.9764
X10.0009Y-3.6947
X10.0136Y-2.5825
X10.0394Y-3.4252
X10.0394Y-4.6654
X10.0406Y-5.4343
X10.0787Y-1.1614
X10.0787Y-1.378
X10.0886Y-2.5492
X10.0983Y-3.714
X10.0983Y-4.042
X10.0984Y-4.2028
X10.1066Y-1.4058
X10.1378Y-1.437
X10.1575Y-1.6142
X10.1772Y-0.9646
X10.1969Y-2.4803
X10.1969Y-3.622
X10.2067Y-4.252
X10.2067Y-4.8425
X10.2067Y-5.1575
X10.2165Y-1.3189
X10.2165Y-3.2185
X10.2264Y-1.6732
X10.2278Y-2.8824
X10.2362Y-4.065
X10.2362Y-5.2953
X10.2559Y-5.5315
X10.2953Y-3.248
X10.2958Y-5.6067
X10.3063Y-3.1705
X10.315Y-1.7717
X10.3465Y-5.6752
X10.3543Y-2.8346
X10.3543Y-4.8031
X10.3543Y-5.4331
X10.3642Y-4.9902
X10.374Y-3.2579
X10.3761Y-3.3169
X10.3839Y-3.4646
X10.3937Y-3.9764
X10.4035Y-4.065
X10.4035Y-4.2323
X10.4232Y-2.6476
X10.4724Y-1.7717
X10.4724Y-3.9075
X10.4724Y-5.4528
X10.4921Y-2.5529
X10.4944Y-3.3169
X10.502Y-3.1299
X10.502Y-3.9469
X10.502Y-4.1732
X10.5177Y-4.8484
X10.5413Y-3.3169
X10.5413Y-3.9173
X10.561Y-3.2087
X10.5709Y-4.0551
X10.5709Y-4.3504
X10.5906Y-2.4803
X10.6102Y-1.7126
X10.6102Y-1.8504
X10.6152Y-5.6752
X10.6594Y-3.9173
X10.6693Y-1.4075
X10.6693Y-5.6102
X10.684Y-2.3955
X10.7087Y-1.6142
X10.7185Y-3.9173
X10.7262Y-4.4518
X10.7283Y-4.7933
X10.736Y-3.5662
X10.748Y-3.8051
X10.7579Y-3.5335
X10.7776Y-3.9567
X10.8169Y-4.6752
X10.8268Y-3.4646
X10.84Y-4.556
X10.8425Y-4.2618
X10.8563Y-4.9606
X10.876Y-4.6654
X10.8858Y-2.4606
X10.8858Y-4.9114
X10.8957Y-5.4626
X10.9252Y-1.8504
X10.935Y-3.6417
X10.9449Y-3.2185
X10.9547Y-2.4705
X10.9646Y-1.2795
X10.9744Y-1.7421
X10.9843Y-2.874
X10.9941Y-3.6122
X11.0039Y-5.4134
X11.0358Y-1.6142
X11.0531Y-3.1693
X11.063Y-2.7953
X11.0728Y-1.8504
X11.142Y-1.484
X11.1516Y-3.9665
X11.1516Y-4.8031
X11.1563Y-1.4136
X11.2045Y-1.4923
X11.2205Y-3.9075
X11.25Y-4.0157
X11.25Y-4.2028
X11.2894Y-3.9173
X11.3375Y-2.4201
X11.3386Y-2.4705
X11.3472Y-4.6752
X11.3472Y-5.3642
X11.3583Y-3.2185
X11.378Y-1.4862
X11.3878Y-3.5433
X11.3976Y-1.3091
X11.3976Y-4.124
X11.4033Y-2.425
X11.4173Y-4.5472
X11.4173Y-4.813
X11.4173Y-5.3642
X11.4185Y-4.0563
X11.4289Y-3.9485
X11.4469Y-1.378
X11.4469Y-4.4488
X11.4469Y-4.9114
X11.4567Y-3.9764
X11.4567Y-4.1339
X11.4567Y-5.4724
X11.4665Y-2.5295
X11.4862Y-4.3602
X11.4961Y-1.4272
X11.5059Y-3.9272
X11.5081Y-4.393
X11.5157Y-4.0157
X11.5453Y-5.0197
X11.5736Y-4.5484
X11.5921Y-2.6083
X11.5945Y-4.9803
X11.5983Y-3.8718
X11.6043Y-1.2697
X11.612Y-4.034
X11.6142Y-5.5315
X11.622Y-5.5906
X11.624Y-2.5689
X11.624Y-5.128
X11.6339Y-5.0295
X11.6535Y-2.6476
X11.6772Y-2.937
X11.6929Y-3.5039
X11.7028Y-4.872
X11.7126Y-3.2185
X11.7179Y-5.5521
X11.7224Y-1.2598
X11.7224Y-3.1594
X11.7224Y-4.8031
X11.7267Y-1.1878
X11.7323Y-2.874
X11.7323Y-4.5374
X11.739Y-4.0563
X11.7421Y-4.2126
X11.7421Y-5.6201
X11.7424Y-2.7942
X11.7618Y-4.7835
X11.7679Y-3.2049
X11.77Y-5.312
X11.7717Y-4.3898
X11.7725Y-4.2807
X11.7815Y-4.7146
X11.7913Y-3.0512
X11.7913Y-4.065
X11.7913Y-4.658
X11.8012Y-5.0433
X11.811Y-5.4626
X11.8209Y-5.408
X11.8307Y-5.187
X11.8307Y-5.3128
X11.8504Y-2.7953
X11.8799Y-3.6024
X11.9028Y-4.8425
X11.9045Y-4.798
X11.9094Y-4.0157
X11.9094Y-5.3128
X11.9134Y-2.6378
X11.9609Y-4.264
X11.9783Y-5.3051
X11.998Y-3.5236
X11.998Y-3.7008
X11.998Y-4.872
X12.0157Y-2.8268
X12.0177Y-3.0315
X12.0177Y-3.1021
X12.0394Y-4.1437
X12.0472Y-1.7421
X12.0476Y-4.8323
X12.0571Y-5.1476
X12.0669Y-0.9843
X12.0669Y-3.2283
X12.0866Y-5.561
X12.1063Y-1.3386
X12.126Y-2.9606
X12.1497Y-4.1987
X12.1654Y-4.8917
X12.1752Y-2.5591
X12.1752Y-4.7146
X12.1752Y-4.9902
X12.1949Y-5.3128
X12.2088Y-4.065
X12.2146Y-1.283
X12.2146Y-4.1634
X12.2146Y-4.2618
X12.2179Y-5.223
X12.2382Y-3.4458
X12.2539Y-4.9114
X12.2551Y-4.6764
X12.2598Y-2.9921
X12.2817Y-3.7014
X12.2933Y-1.6929
X12.3216Y-3.702
X12.3228Y-1.437
X12.3622Y-5.4232
X12.3701Y-0.8031
X12.372Y-1.8504
X12.3807Y-3.1142
X12.3812Y-5.305
X12.3917Y-2.5984
X12.4016Y-1.6142
X12.4114Y-2.874
X12.4114Y-5.5709
X12.4252Y-2.9843
X12.4311Y-5.342
X12.4352Y-0.9293
X12.4409Y-4.0945
X12.4508Y-2.8937
X12.4705Y-1.4665
X12.4705Y-1.8602
X12.4705Y-2.408
X12.4705Y-2.5984
X12.4705Y-3.1004
X12.4705Y-4.4685
X12.4767Y-1.7323
X12.4803Y-0.926
X12.4803Y-3.0525
X12.5Y-4.439
X12.5015Y-2.4323
X12.5189Y-0.8965
X12.5197Y-4.0945
X12.5276Y-2.7953
X12.5394Y-2.1161
X12.5467Y-1.405
X12.5591Y-2.9134
X12.5591Y-4.3701
X12.5787Y-4.124
X12.5787Y-4.4193
X12.5938Y-3.2345
X12.594Y-5.102
X12.5984Y-3.7822
X12.5984Y-3.8216
X12.5984Y-3.9805
X12.5984Y-5.5512
X12.5996Y-4.2453
X12.6036Y-2.7036
X12.6142Y-4.8898
X12.622Y-2.9843
X12.628Y-5.6201
X12.6378Y-0.7972
X12.6378Y-0.8366
X12.6378Y-5.561
X12.6476Y-1.4567
X12.6544Y-2.6741
X12.6575Y-1.8504
X12.6575Y-4.9606
X12.6772Y-2.7874
X12.6772Y-2.8425
X12.6847Y-5.162
X12.6857Y-3.023
X12.6969Y-3.061
X12.6969Y-4.1437
X12.6969Y-4.4094
X12.6969Y-4.4488
X12.6969Y-4.498
X12.6969Y-4.5374
X12.6969Y-4.7441
X12.7087Y-4.0945
X12.7165Y-3.7822
X12.7362Y-5.4134
X12.7449Y-3.9086
X12.7473Y-3.387
X12.748Y-2.7717
X12.748Y-2.8504
X12.7559Y-3.7008
X12.7559Y-4.7638
X12.7559Y-5.0215
X12.7657Y-3.5335
X12.7752Y-4.6469
X12.7823Y-5.4103
X12.7874Y-5.6693
X12.7953Y-3.2165
X12.7953Y-3.6614
X12.811Y-5.6299
X12.815Y-1.689
X12.815Y-3.2972
X12.8346Y-1.3484
X12.8346Y-3.622
X12.836Y-2.7546
X12.8375Y-1.2795
X12.8445Y-3.2165
X12.8457Y-5.4122
X12.8504Y-5.6014
X12.874Y-2.5039
X12.8937Y-5.3051
X12.8976Y-5.7352
X12.8983Y-5.1529
X12.9195Y-3.0844
X12.9232Y-5.0886
X12.9232Y-5.5315
X12.9331Y-3.1398
X12.9528Y-5.4724
X12.9724Y-3.6516
X12.9843Y-5.7087
X12.9921Y-3.501
X12.9921Y-3.8386
X12.9921Y-5.6693
X13.0018Y-3.208
X13.002Y-4.1339
X13.002Y-4.9409
X13.0118Y-3.2461
X13.0217Y-2.4213
X13.0315Y-3.6693
X13.0315Y-3.7953
X13.0315Y-4.3701
X13.0428Y-5.5861
X13.0512Y-4.5374
X13.0512Y-4.5768
X13.0512Y-4.6161
X13.0512Y-5.2067
X13.0709Y-3.8661
X13.0709Y-5.3937
X13.0709Y-2.7874
X13.0787Y-5.3307
X13.0807Y-1.1801
X13.0906Y-5.2559
X13.0909Y-3.5167
X13.0917Y-5.5327
X13.0992Y-5.6583
X13.1196Y-5.5049
X13.1251Y-3.5364
X13.1398Y-4.1535
X13.1484Y-2.4453
X13.1496Y-4.3406
X13.1693Y-4.124
X13.1752Y-5.4528
X13.1752Y-5.5413
X13.1752Y-5.5807
X13.1779Y-2.408
X13.1791Y-3.6614
X13.189Y-5.6693
X13.1949Y-5.0295
X13.1977Y-5.2646
X13.2075Y-2.3043
X13.2087Y-4.439
X13.2244Y-4.498
X13.2244Y-4.5374
X13.2244Y-4.5768
X13.2244Y-4.8164
X13.2283Y-2.0669
X13.2283Y-4.6161
X13.2283Y-4.685
X13.2283Y-4.7244
X13.2343Y-5.3162
X13.2362Y-5.5925
X13.237Y-5.2252
X13.2402Y-2.8222
X13.248Y-4.3996
X13.2541Y-4.2089
X13.2579Y-1.7717
X13.2579Y-3.8878
X13.2579Y-4.1437
X13.2579Y-4.6555
X13.2677Y-1.7323
X13.2776Y-2.8346
X13.2776Y-5.315
X13.2776Y-5.502
X13.2872Y-3.4683
X13.2874Y-4.3701
X13.2886Y-4.45
X13.296Y-4.6457
X13.3064Y-3.208
X13.3071Y-2.5502
X13.3071Y-4.2055
X13.3268Y-1.3287
X13.3268Y-4.3504
X13.3366Y-2.0215
X13.3366Y-5.0984
X13.3366Y-5.502
X13.3378Y-5.2079
X13.3465Y-3.189
X13.3465Y-4.4882
X13.3465Y-5.4114
X13.3563Y-2.7079
X13.3571Y-3.3985
X13.3575Y-2.6685
X13.3661Y-2.7854
X13.3661Y-2.8346
X13.3661Y-5.0197
X13.3703Y-2.7463
X13.3711Y-3.4596
X13.376Y-4.5669
X13.3858Y-1.3386
X13.3858Y-4.2126
X13.3858Y-5.3937
X13.3866Y-3.25
X13.3945Y-1.5453
X13.3957Y-2.0215
X13.4055Y-2.4606
X13.4055Y-3.6516
X13.4173Y-3.9449
X13.4223Y-2.8222
X13.4252Y-3.7008
X13.4252Y-3.7402
X13.4252Y-3.7795
X13.4264Y-3.8201
X13.427Y-3.8613
X13.4376Y-4.6482
X13.4547Y-4.2323
X13.4655Y-3.2776
X13.4709Y-3.0729
X13.4719Y-2.966
X13.4733Y-2.7549
X13.4843Y-4.6555
X13.4843Y-4.9705
X13.4941Y-5.2953
X13.4953Y-2.5086
X13.5254Y-3.9766
X13.5323Y-4.487
X13.5354Y-4.9134
X13.5512Y-5.0236
X13.5531Y-1.7815
X13.5643Y-4.9865
X13.5676Y-3.6644
X13.5701Y-4.0977
X13.5827Y-3.7008
X13.5827Y-3.7402
X13.5827Y-3.7795
X13.5827Y-3.8189
X13.5827Y-3.8583
X13.5925Y-1.752
X13.5925Y-3.4843
X13.5925Y-4.439
X13.6142Y-2.8031
X13.622Y-3.376
X13.622Y-3.622
X13.622Y-3.8878
X13.622Y-4.3209
X13.6417Y-3.9665
X13.6453Y-4.2891
X13.6614Y-3.622
X13.6713Y-3.8878
X13.6805Y-4.1664
X13.6811Y-4.9213
X13.6909Y-3.9665
X13.6929Y-4.3007
X13.7008Y-3.6053
X13.7106Y-3.8878
X13.7193Y-4.1831
X13.7303Y-4.2815
X13.7402Y-3.6053
X13.75Y-3.9567
X13.754Y-5.1872
X13.7598Y-3.4843
X13.7598Y-3.8878
X13.7697Y-1.3386
X13.7697Y-5.0984
X13.7794Y-4.2741
X13.7795Y-1.2894
X13.7795Y-2.4705
X13.7894Y-2.4114
X13.7894Y-3.1594
X13.7894Y-3.6053
X13.7894Y-3.9547
X13.803Y-5.0216
X13.8091Y-2.5492
X13.8091Y-4.1339
X13.8146Y-4.9606
X13.8189Y-3.8878
X13.8189Y-4.9213
X13.8287Y-3.2283
X13.8287Y-3.622
X13.8287Y-4.2815
X13.8346Y-5.3228
X13.8386Y-3.9547
X13.8398Y-5.1587
X13.8484Y-4.124
X13.8583Y-3.1496
X13.8583Y-3.8957
X13.8681Y-2.5197
X13.8681Y-3.2776
X13.8681Y-5.4134
X13.8715Y-2.2638
X13.878Y-4.2815
X13.8872Y-4.4424
X13.8949Y-3.9693
X13.8976Y-3.248
X13.8976Y-4.124
X13.9055Y-5.5925
X13.9173Y-4.2815
X13.9245Y-2.9035
X13.9272Y-5.128
X13.9272Y-5.4134
X13.937Y-4.124
X13.9567Y-4.2815
X13.9677Y-4.8043
X13.9685Y-4.3598
X13.9862Y-3.0512
X13.9862Y-3.1142
X13.9866Y-4.1319
X13.9947Y-4.2918
X13.9961Y-5.4626
X14.0059Y-3.5758
X14.0061Y-4.813
X14.0063Y-4.6748
X14.0146Y-2.8925
X14.0157Y-3.002
X14.0157Y-4.4587
X14.0256Y-1.8602
X14.0256Y-4.124
X14.0256Y-4.872
X14.0256Y-5.5906
X14.0311Y-4.498
X14.0324Y-4.3032
X14.0354Y-3.1161
X14.0358Y-4.7101
X14.0551Y-4.813
X14.0551Y-5.4626
X14.065Y-5.4134
X14.0717Y-4.3008
X14.0748Y-3.1142
X14.0748Y-5.0054
X14.0748Y-5.1476
X14.0763Y-2.5744
X14.0838Y-3.652
X14.0846Y-4.5079
X14.0945Y-5.5261
X14.0992Y-5.3295
X14.1043Y-3.0551
X14.1102Y-4.2756
X14.112Y-4.61
X14.1142Y-3.2677
X14.1142Y-4.2323
X14.1181Y-3.6713
X14.1198Y-4.5529
X14.126Y-2.4829
X14.1339Y-3.1496
X14.1339Y-3.6067
X14.1437Y-2.0374
X14.1496Y-3.8878
X14.1496Y-4.0787
X14.1575Y-4.7992
X14.1634Y-2.4705
X14.1634Y-4.2901
X14.1642Y-4.5807
X14.1891Y-5.2948
X14.1957Y-3.5185
X14.1969Y-3.8878
X14.1969Y-4.0787
X14.2034Y-4.627
X14.2126Y-5.6614
X14.2233Y-2.7756
X14.2233Y-3.4882
X14.228Y-4.886
X14.2283Y-5.2913
X14.2323Y-3.9173
X14.2323Y-4.5669
X14.252Y-3.376
X14.2588Y-1.8602
X14.2835Y-5.3346
X14.2913Y-1.5059
X14.3012Y-1.437
X14.312Y-4.94
X14.313Y-3.6067
X14.315Y-2.7008
X14.3228Y-3.6693
X14.3305Y-2.1035
X14.3504Y-4.311
X14.3602Y-3.3957
X14.3622Y-3.6614
X14.3799Y-3.6122
X14.389Y-3.5032
X14.3898Y-3.9469
X14.4118Y-3.5357
X14.4291Y-3.3661
X14.4363Y-4.572
X14.444Y-4.95
X14.446Y-4.81
X14.4567Y-3.0945
X14.4587Y-4.4783
X14.4773Y-3.9794
X14.4783Y-3.2776
X14.5079Y-5.4134
X14.516Y-4.648
X14.525Y-2.4102
X14.5257Y-3.9861
X14.5276Y-2.4606
X14.5276Y-3.2185
X14.5276Y-5.0433
X14.5374Y-2.6969
X14.5414Y-3.1723
X14.5484Y-3.7303
X14.5571Y-3.8484
X14.5669Y-2.5295
X14.5669Y-5.0197
X14.574Y-4.5845
X14.5742Y-3.9927
X14.576Y-4.682
X14.5768Y-1.2894
X14.5866Y-2.7264
X14.5866Y-3.878
X14.5965Y-2.4606
X14.5965Y-2.6476
X14.6063Y-5.561
X14.626Y-5.0197
X14.6268Y-1.5827
X14.6305Y-4.0073
X14.6321Y-3.8817
X14.6685Y-1.5323
X14.6725Y-3.8654
X14.685Y-4.0945
X14.7244Y-1.6299
X14.7244Y-4.1339
X14.7244Y-4.1732
X14.7302Y-3.5997
X14.7323Y-4.4094
X14.7343Y-2.6181
X14.7343Y-2.6673
X14.7441Y-4.2618
X14.748Y-2.5787
X14.7539Y-2.0927
X14.7559Y-4.0118
X14.7618Y-5.502
X14.7638Y-1.2992
X14.7638Y-2.2835
X14.7638Y-3.6516
X14.7736Y-4.2126
X14.7815Y-4.4094
X14.7815Y-4.6358
X14.7815Y-5.4232
X14.8031Y-1.6929
X14.8031Y-2.2835
X14.811Y-5.622
X14.813Y-1.8701
X14.816Y-1.9094
X14.8425Y-2.3128
X14.8511Y-1.9518
X14.8525Y-1.9912
X14.8622Y-5.0492
X14.872Y-4.4685
X14.8917Y-2.4606
X14.9016Y-1.3386
X14.9016Y-4.3996
X14.9057Y-3.9805
X14.9134Y-4.1811
X14.9213Y-4.1339
X14.9213Y-4.6063
X14.9213Y-4.6457
X14.9213Y-5.4724
X14.9311Y-4.439
X14.9449Y-4.5472
X14.9488Y-3.9646
X14.9606Y-4.0945
X14.9803Y-3.7303
X14.9855Y-3.9788
X14.993Y-3.5039
X14.9942Y-3.7853
X15.0Y-3.2972
X15.0Y-4.0551
X15.0025Y-3.5666
X15.0098Y-1.4075
X15.0098Y-4.4094
X15.0295Y-2.5886
X15.0394Y-3.4055
X15.0394Y-3.4961
X15.0394Y-4.0157
X15.0492Y-4.3799
X15.0591Y-4.3307
X15.0611Y-3.8522
X15.0658Y-2.6544
X15.0787Y-1.7815
X15.0787Y-4.6063
X15.086Y-4.6752
X15.0915Y-2.6246
X15.1Y-3.8585
X15.1001Y-3.5474
X15.1102Y-4.5669
X15.1181Y-1.4961
X15.1181Y-3.5827
X15.1181Y-4.4685
X15.1181Y-4.5177
X15.1185Y-4.2031
X15.1295Y-3.7894
X15.1297Y-4.6486
X15.1378Y-4.7539
X15.1394Y-3.8583
X15.1476Y-4.439
X15.1676Y-3.7794
X15.1772Y-4.1929
X15.1969Y-1.5157
X15.1969Y-1.7815
X15.1969Y-3.3563
X15.1969Y-4.5472
X15.1969Y-5.502
X15.206Y-3.2677
X15.2144Y-3.7522
X15.2145Y-4.1805
X15.2146Y-3.9173
X15.2165Y-5.6201
X15.2362Y-1.7421
X15.2362Y-2.7067
X15.2362Y-3.3563
X15.2362Y-3.435
X15.2362Y-5.3128
X15.2362Y-5.4134
X15.2441Y-3.8484
X15.2461Y-3.2677
X15.2657Y-1.4862
X15.2756Y-2.4114
X15.2756Y-2.4705
X15.2756Y-3.376
X15.2756Y-3.4646
X15.2756Y-4.1831
X15.2756Y-5.1024
X15.279Y-4.3186
X15.2805Y-3.5036
X15.2854Y-3.248
X15.315Y-1.4862
X15.315Y-2.5197
X15.3248Y-4.1732
X15.3346Y-3.8976
X15.3445Y-1.437
X15.3445Y-4.7343
X15.3469Y-3.3292
X15.348Y-4.8291
X15.3543Y-3.8189
X15.3701Y-3.7244
X15.3773Y-2.8609
X15.3937Y-4.626
X15.4134Y-3.4055
X15.4134Y-3.4055
X15.4134Y-5.4134
X15.4134Y-5.6299
X15.4232Y-4.3996
X15.4264Y-4.324
X15.4429Y-3.376
X15.4701Y-4.4414
X15.502Y-4.9902
X15.502Y-2.9331
X15.5094Y-4.4807
X15.5118Y-2.8839
X15.5118Y-4.6358
X15.5118Y-5.0295
X15.5413Y-4.3701
X15.5475Y-3.0868
X15.5512Y-1.1801
X15.5512Y-2.4016
X15.561Y-4.7441
X15.5709Y-0.8374
X15.5709Y-4.8917
X15.5807Y-2.4803
X15.5807Y-3.7539
X15.6102Y-3.8287
X15.6201Y-3.0512
X15.6201Y-4.6555
X15.6287Y-2.6169
X15.6299Y-5.0
X15.6594Y-3.0551
X15.6594Y-3.1791
X15.6693Y-5.0295
X15.6767Y-4.6555
X15.6791Y-2.8346
X15.6988Y-3.0512
X15.7087Y-5.3051
X15.7283Y-3.1594
X15.7323Y-3.7402
X15.7323Y-4.1496
X15.7323Y-4.1969
X15.7392Y-4.1024
X15.748Y-4.9508
X15.7579Y-3.0551
X15.7677Y-4.7539
X15.7717Y-3.2205
X15.784Y-5.0182
X15.7874Y-2.6794
X15.7972Y-1.3681
X15.7982Y-3.9961
X15.8031Y-3.1181
X15.8065Y-3.0525
X15.8071Y-4.2323
X15.811Y-3.8189
X15.8169Y-2.5
X15.8169Y-3.2185
X15.8169Y-4.2717
X15.8242Y-3.4764
X15.8253Y-5.0186
X15.8268Y-3.937
X15.8268Y-4.0354
X15.8268Y-4.6063
X15.8366Y-3.5138
X15.8547Y-3.5539
X15.8563Y-2.815
X15.8657Y-5.0199
X15.8661Y-3.8976
X15.9108Y-1.4469
X15.9154Y-3.0512
X15.9206Y-2.6006
X15.9252Y-2.5591
X15.9252Y-3.2677
X15.9252Y-4.7638
X15.928Y-4.1
X15.9764Y-4.1102
X15.9776Y-4.1508
X15.9941Y-4.7933
X16.0138Y-4.1803
X16.0236Y-4.8228
X16.0335Y-2.5295
X16.0433Y-5.0197
X16.0464Y-4.8984
X16.063Y-4.8622
X16.0827Y-5.4134
X16.1024Y-5.0394
X16.1122Y-5.4921
X16.1516Y-5.0871
X16.1516Y-5.5512
X16.1713Y-2.5689
X16.1713Y-5.1476
X16.18Y-2.53
X16.183Y-2.9115
X16.189Y-2.6614
X16.2008Y-3.2185
X16.2008Y-4.0354
X16.2106Y-1.4764
X16.2106Y-2.7657
X16.2165Y-4.7933
X16.2205Y-3.1594
X16.2303Y-2.4114
X16.2303Y-2.4705
X16.2303Y-5.4331
X16.2402Y-5.0197
X16.2441Y-3.2283
X16.25Y-1.4764
X16.25Y-2.7165
X16.2795Y-1.7814
X16.2795Y-2.6673
X16.2925Y-2.513
X16.2933Y-2.4016
X16.3071Y-2.5984
X16.309Y-3.4016
X16.3091Y-2.8445
X16.3189Y-3.9961
X16.3228Y-3.1732
X16.3386Y-4.1831
X16.3386Y-4.3228
X16.3386Y-4.9291
X16.3398Y-5.0209
X16.3484Y-2.628
X16.3583Y-2.5591
X16.3858Y-2.8268
X16.3976Y-4.1831
X16.4094Y-3.9528
X16.4272Y-4.0256
X16.4272Y-5.1083
X16.4469Y-1.4883
X16.4488Y-1.1801
X16.4488Y-1.4094
X16.4764Y-4.1929
X16.4803Y-3.8718
X16.4862Y-1.4862
X16.4862Y-1.8406
X16.5155Y-4.1973
X16.5197Y-4.4331
X16.5197Y-1.7657
X16.5285Y-5.1757
X16.533Y-3.5457
X16.5354Y-1.4961
X16.5551Y-2.5394
X16.5642Y-4.0413
X16.565Y-2.4705
X16.5748Y-5.1083
X16.5846Y-2.5689
X16.5846Y-3.9961
X16.5906Y-4.1339
X16.5906Y-4.1811
X16.5945Y-5.4134
X16.5945Y-5.4724
X16.5957Y-1.4776
X16.6017Y-3.2185
X16.6142Y-4.7146
X16.6614Y-4.1496
X16.664Y-2.516
X16.6732Y-1.4469
X16.685Y-4.1811
X16.7349Y-4.299
X16.7638Y-4.2205
X16.7815Y-5.0295
X16.8504Y-1.4764
X16.8602Y-1.5551
X16.8701Y-2.628
X16.8898Y-1.6299
X16.8996Y-1.9587
X16.9094Y-4.5276
X16.9193Y-2.5984
X16.9291Y-1.5354
X16.9291Y-1.7323
X16.939Y-3.248
X16.939Y-3.9961
X16.939Y-4.658
X16.939Y-4.6973
X16.9488Y-2.0374
X16.9547Y-3.3406
X16.9547Y-3.5177
X16.9587Y-2.4606
X16.9587Y-5.0
X16.96Y-4.91
X16.9685Y-3.9375
X16.9882Y-2.4114
X16.9882Y-3.248
X16.998Y-1.7815
X16.998Y-2.6181
X17.0177Y-5.1772
X17.0295Y-3.443
X17.0472Y-5.3051
X17.0571Y-4.3504
X17.0768Y-5.1181
X17.1102Y-4.7795
X17.1112Y-5.1573
X17.185Y-5.0591
X17.1949Y-5.3051
X17.2146Y-1.4961
X17.215Y-5.5122
X17.2441Y-3.2087
X17.2539Y-5.3128
X17.2736Y-2.2933
X17.2736Y-4.4882
X17.2835Y-4.5472
X17.2835Y-5.2067
X17.2874Y-2.0373
X17.3007Y-4.717
X17.3031Y-2.1161
X17.3071Y-4.3307
X17.3228Y-5.0787
X17.3307Y-4.2283
X17.3327Y-1.4764
X17.3327Y-2.4606
X17.3327Y-3.9469
X17.3327Y-3.9961
X17.3425Y-4.7539
X17.3517Y-4.2677
X17.3524Y-5.4626
X17.4114Y-4.8228
X17.4173Y-4.1339
X17.4409Y-4.252
X17.4606Y-2.7756
X17.4786Y-4.1654
X17.4934Y-2.7538
X17.5433Y-4.1339
X17.5433Y-4.2913
X17.5984Y-1.4075
X17.6378Y-5.561
X17.6969Y-1.2598
X17.6969Y-1.3878
X17.6969Y-4.0059
X17.7067Y-3.2185
X17.7125Y-3.937
X17.7165Y-2.4705
X17.7165Y-3.1594
X17.7165Y-5.4134
X17.7461Y-2.4114
X17.7461Y-4.7047
X17.7854Y-3.9213
X17.8051Y-1.437
X17.815Y-3.3169
X17.815Y-3.376
X17.815Y-4.1831
X17.815Y-4.2717
X17.8248Y-3.435
X17.8248Y-3.4843
X17.8346Y-2.5886
X17.8368Y-3.2842
X17.8374Y-4.658
X17.8466Y-3.517
X17.8531Y-4.204
X17.8543Y-4.2717
X17.8642Y-1.6831
X17.8859Y-3.5136
X17.9122Y-3.3059
X17.9331Y-2.5787
X18.002Y-4.8819
X18.0217Y-3.4055
X18.0807Y-1.6831
X18.1201Y-4.8819
X18.1299Y-3.189
X18.198Y-2.542
X18.1988Y-3.0118
X18.2316Y-2.99
X18.2585Y-2.9613
X18.2677Y-1.6831
X18.2776Y-2.9232
X18.3366Y-1.6929
X18.376Y-4.685
X18.3937Y-5.5197
X18.4055Y-4.5866
X18.4055Y-5.0295
X18.4055Y-5.1575
X18.4449Y-3.1201
X18.4941Y-3.1496
X18.563Y-3.4941
X18.563Y-4.685
X18.5925Y-3.1988
X18.622Y-4.6949
X18.6253Y-3.177
T2
X15.6398Y-4.7476
X15.6398Y-4.7976
X15.6398Y-4.8476
X15.6398Y-4.8976
X15.6398Y-4.9476
X15.6898Y-4.7476
X15.6898Y-4.7976
X15.6898Y-4.8476
X15.6898Y-4.8976
X15.6898Y-4.9476
T3
X15.266Y-4.8291
X15.266Y-4.9291
X15.4094Y-4.8291
X15.4094Y-4.9291
T4
X1.0687Y-2.15
X1.0687Y-2.9
X1.0687Y-3.65
X1.0687Y-4.4
X1.0687Y-5.15
X1.1203Y-2.0925
X1.1203Y-2.8425
X1.1203Y-3.5925
X1.1203Y-4.3425
X1.1203Y-5.0925
X1.3172Y-2.0728
X1.3172Y-2.8228
X1.3172Y-3.5728
X1.3172Y-4.3228
X1.3172Y-5.0728
X1.3187Y-2.05
X1.3187Y-2.8
X1.3187Y-3.55
X1.3187Y-4.3
X1.3187Y-5.05
X2.0063Y-1.025
X2.0063Y-2.15
X2.0578Y-0.9675
X2.0578Y-2.0925
X2.1Y-4.4
X2.1Y-5.15
X2.1516Y-4.3425
X2.1516Y-5.0925
X2.1938Y-2.9
X2.2453Y-2.8425
X2.2547Y-0.9478
X2.2547Y-2.0728
X2.2563Y-0.925
X2.2563Y-2.05
X2.2875Y-3.65
X2.3391Y-3.5925
X2.3484Y-4.3228
X2.3484Y-5.0728
X2.35Y-4.3
X2.35Y-5.05
X2.4422Y-2.8228
X2.4438Y-2.8
X2.5359Y-3.5728
X2.5375Y-3.55
X2.7563Y-2.15
X2.8078Y-2.0925
X2.9438Y-4.4
X2.9953Y-4.3425
X3.0047Y-2.0728
X3.0063Y-2.05
X3.0375Y-5.15
X3.0891Y-5.0925
X3.1313Y-2.9
X3.1828Y-2.8425
X3.1922Y-4.3228
X3.1938Y-4.3
X3.2859Y-5.0728
X3.2875Y-5.05
X3.3188Y-3.65
X3.3703Y-3.5925
X3.3797Y-2.8228
X3.3813Y-2.8
X3.5063Y-1.025
X3.5063Y-2.15
X3.5578Y-0.9675
X3.5578Y-2.0925
X3.5672Y-3.5728
X3.5688Y-3.55
X3.6938Y-4.4
X3.7453Y-4.3425
X3.7547Y-0.9478
X3.7547Y-2.0728
X3.7563Y-0.925
X3.7563Y-2.05
X3.8813Y-2.9
X3.9328Y-2.8425
X3.9422Y-4.3228
X3.9438Y-4.3
X3.975Y-5.15
X4.0266Y-5.0925
X4.0687Y-3.65
X4.1203Y-3.5925
X4.1297Y-2.8228
X4.1312Y-2.8
X4.2234Y-5.0728
X4.225Y-5.05
X4.2562Y-1.025
X4.2562Y-2.15
X4.3078Y-0.9675
X4.3078Y-2.0925
X4.3172Y-3.5728
X4.3187Y-3.55
X4.4437Y-4.4
X4.4953Y-4.3425
X4.5047Y-0.9478
X4.5047Y-2.0728
X4.5062Y-0.925
X4.5062Y-2.05
X4.6312Y-2.9
X4.6828Y-2.8425
X4.6922Y-4.3228
X4.6937Y-4.3
X4.8187Y-3.65
X4.8703Y-3.5925
X4.8797Y-2.8228
X4.8812Y-2.8
X5.0062Y-1.025
X5.0062Y-2.15
X5.0578Y-0.9675
X5.0578Y-2.0925
X5.0672Y-3.5728
X5.0687Y-3.55
X5.1937Y-4.4
X5.2453Y-4.3425
X5.2547Y-0.9478
X5.2547Y-2.0728
X5.2562Y-0.925
X5.2562Y-2.05
X5.3812Y-2.9
X5.4328Y-2.8425
X5.4422Y-4.3228
X5.4437Y-4.3
X5.5687Y-3.65
X5.6203Y-3.5925
X5.6297Y-2.8228
X5.6312Y-2.8
X5.7562Y-1.025
X5.7562Y-2.15
X5.8078Y-0.9675
X5.8078Y-2.0925
X5.8172Y-3.5728
X5.8187Y-3.55
X5.9437Y-4.4
X5.9953Y-4.3425
X6.0047Y-0.9478
X6.0047Y-2.0728
X6.0062Y-0.925
X6.0062Y-2.05
X6.1312Y-2.9
X6.1828Y-2.8425
X6.1922Y-4.3228
X6.1937Y-4.3
X6.3187Y-3.65
X6.3703Y-3.5925
X6.3797Y-2.8228
X6.3812Y-2.8
X6.5062Y-2.15
X6.5578Y-2.0925
X6.5672Y-3.5728
X6.5687Y-3.55
X6.6937Y-4.4
X6.7206Y-5.15
X6.7453Y-4.3425
X6.7547Y-2.0728
X6.7562Y-2.05
X6.7721Y-5.0925
X6.8812Y-1.025
X6.8812Y-2.9
X6.9328Y-0.9675
X6.9328Y-2.8425
X6.9422Y-4.3228
X6.9437Y-4.3
X6.969Y-5.0728
X6.9706Y-5.05
X7.0687Y-3.65
X7.1203Y-3.5925
X7.1297Y-0.9478
X7.1297Y-2.8228
X7.1312Y-0.925
X7.1312Y-2.8
X7.2562Y-2.15
X7.3078Y-2.0925
X7.3172Y-3.5728
X7.3187Y-3.55
X7.4437Y-4.4
X7.4953Y-4.3425
X7.5047Y-2.0728
X7.5062Y-2.05
X7.6312Y-1.025
X7.6312Y-2.9
X7.6828Y-0.9675
X7.6828Y-2.8425
X7.6922Y-4.3228
X7.6937Y-4.3
X7.8187Y-3.65
X7.8703Y-3.5925
X7.8797Y-0.9478
X7.8797Y-2.8228
X7.8812Y-0.925
X7.8812Y-2.8
X8.0062Y-2.15
X8.0578Y-2.0925
X8.0672Y-3.5728
X8.0687Y-3.55
X8.1937Y-4.4
X8.2453Y-4.3425
X8.2547Y-2.0728
X8.2562Y-2.05
X8.3812Y-1.025
X8.3812Y-2.9
X8.4328Y-0.9675
X8.4328Y-2.8425
X8.4422Y-4.3228
X8.4437Y-4.3
X8.5687Y-3.65
X8.6203Y-3.5925
X8.6297Y-0.9478
X8.6297Y-2.8228
X8.6312Y-0.925
X8.6312Y-2.8
X8.7562Y-2.15
X8.8078Y-2.0925
X8.8172Y-3.5728
X8.8187Y-3.55
X8.9437Y-4.4
X8.9953Y-4.3425
X9.0047Y-2.0728
X9.0062Y-2.05
X9.1312Y-1.025
X9.1312Y-2.9
X9.1828Y-0.9675
X9.1828Y-2.8425
X9.1922Y-4.3228
X9.1937Y-4.3
X9.3187Y-3.65
X9.3703Y-3.5925
X9.3797Y-0.9478
X9.3797Y-2.8228
X9.3812Y-0.925
X9.3812Y-2.8
X9.5062Y-2.15
X9.5578Y-2.0925
X9.5672Y-3.5728
X9.5687Y-3.55
X9.6Y-5.15
X9.6516Y-5.0925
X9.6937Y-4.4
X9.7453Y-4.3425
X9.7547Y-2.0728
X9.7562Y-2.05
X9.8484Y-5.0728
X9.85Y-5.05
X9.8812Y-2.9
X9.9328Y-2.8425
X9.9422Y-4.3228
X9.9437Y-4.3
X10.0687Y-3.65
X10.1203Y-3.5925
X10.1297Y-2.8228
X10.1312Y-2.8
X10.2562Y-1.025
X10.2562Y-2.15
X10.3078Y-0.9675
X10.3078Y-2.0925
X10.3172Y-3.5728
X10.3187Y-3.55
X10.4437Y-4.4
X10.4953Y-4.3425
X10.5047Y-0.9478
X10.5047Y-2.0728
X10.5062Y-0.925
X10.5062Y-2.05
X10.5375Y-5.15
X10.5891Y-5.0925
X10.6312Y-2.9
X10.6828Y-2.8425
X10.6922Y-4.3228
X10.6937Y-4.3
X10.7859Y-5.0728
X10.7875Y-5.05
X10.8187Y-3.65
X10.8703Y-3.5925
X10.8797Y-2.8228
X10.8812Y-2.8
X11.0062Y-1.025
X11.0062Y-2.15
X11.0578Y-0.9675
X11.0578Y-2.0925
X11.0672Y-3.5728
X11.0687Y-3.55
X11.2547Y-0.9478
X11.2547Y-2.0728
X11.2562Y-0.925
X11.2562Y-2.05
X11.3812Y-2.9
X11.4328Y-2.8425
X11.475Y-5.15
X11.5266Y-5.0925
X11.5687Y-3.65
X11.6203Y-3.5925
X11.6297Y-2.8228
X11.6312Y-2.8
X11.7234Y-5.0728
X11.725Y-5.05
X11.7562Y-1.025
X11.8078Y-0.9675
X11.8172Y-3.5728
X11.8187Y-3.55
X11.85Y-4.4
X11.9016Y-4.3425
X12.0047Y-0.9478
X12.0062Y-0.925
X12.0984Y-4.3228
X12.1Y-4.3
X12.1312Y-2.15
X12.1828Y-2.0925
X12.3797Y-2.0728
X12.3812Y-2.05
X12.4125Y-5.15
X12.4641Y-3.5522
X12.4641Y-5.0925
X12.5062Y-1.025
X12.5578Y-0.9675
X12.6609Y-3.5325
X12.6609Y-5.0728
X12.6625Y-3.225
X12.6625Y-5.05
X12.72Y-3.2766
X12.7397Y-3.4734
X12.7547Y-0.9478
X12.7562Y-0.925
X12.7625Y-3.475
X13.4437Y-1.025
X13.4437Y-2.15
X13.4437Y-2.9
X13.4437Y-5.15
X13.4953Y-0.9675
X13.4953Y-2.0925
X13.4953Y-2.8425
X13.4953Y-5.0925
X13.6922Y-0.9478
X13.6922Y-2.0728
X13.6922Y-2.8228
X13.6922Y-5.0728
X13.6937Y-0.925
X13.6937Y-2.05
X13.6937Y-2.8
X13.6937Y-5.05
X14.1937Y-1.025
X14.1937Y-2.15
X14.1937Y-2.9
X14.1937Y-4.4
X14.1937Y-5.15
X14.2453Y-0.9675
X14.2453Y-2.0925
X14.2453Y-2.8425
X14.2453Y-4.3425
X14.2453Y-5.0925
X14.4422Y-0.9478
X14.4422Y-2.0728
X14.4422Y-2.8228
X14.4422Y-4.3228
X14.4422Y-5.0728
X14.4437Y-0.925
X14.4437Y-2.05
X14.4437Y-2.8
X14.4437Y-4.3
X14.4437Y-5.05
X14.9437Y-1.025
X14.9437Y-2.15
X14.9437Y-2.9
X14.9437Y-5.15
X14.9953Y-0.9675
X14.9953Y-2.0925
X14.9953Y-2.8425
X14.9953Y-5.0925
X15.1922Y-0.9478
X15.1922Y-2.0728
X15.1922Y-2.8228
X15.1922Y-5.0728
X15.1937Y-0.925
X15.1937Y-2.05
X15.1937Y-2.8
X15.1937Y-5.05
X15.8812Y-1.025
X15.8812Y-2.15
X15.8812Y-2.9
X15.8812Y-3.65
X15.8812Y-4.4
X15.9328Y-0.9675
X15.9328Y-2.0925
X15.9328Y-2.8425
X15.9328Y-3.5925
X15.9328Y-4.3425
X16.1297Y-0.9478
X16.1297Y-2.0728
X16.1297Y-2.8228
X16.1297Y-3.5728
X16.1297Y-4.3228
X16.1312Y-0.925
X16.1312Y-2.05
X16.1312Y-2.8
X16.1312Y-3.55
X16.1312Y-4.3
X16.2562Y-5.15
X16.3078Y-5.0925
X16.5047Y-5.0728
X16.5062Y-5.05
X16.6312Y-1.025
X16.6312Y-2.15
X16.6312Y-2.9
X16.6312Y-3.65
X16.6312Y-4.4
X16.6828Y-0.9675
X16.6828Y-2.0925
X16.6828Y-2.8425
X16.6828Y-3.5925
X16.6828Y-4.3425
X16.8797Y-0.9478
X16.8797Y-2.0728
X16.8797Y-2.8228
X16.8797Y-3.5728
X16.8797Y-4.3228
X16.8812Y-0.925
X16.8812Y-2.05
X16.8812Y-2.8
X16.8812Y-3.55
X16.8812Y-4.3
X17.3812Y-1.025
X17.3812Y-2.15
X17.3812Y-2.9
X17.3812Y-3.65
X17.3812Y-4.4
X17.3812Y-5.15
X17.4328Y-0.9675
X17.4328Y-2.0925
X17.4328Y-2.8425
X17.4328Y-3.5925
X17.4328Y-4.3425
X17.4328Y-5.0925
X17.6297Y-0.9478
X17.6297Y-2.0728
X17.6297Y-2.8228
X17.6297Y-3.5728
X17.6297Y-4.3228
X17.6297Y-5.0728
X17.6312Y-0.925
X17.6312Y-2.05
X17.6312Y-2.8
X17.6312Y-3.55
X17.6312Y-4.3
X17.6312Y-5.05
X18.0813Y-3.275
X18.0813Y-4.775
X18.1041Y-3.2766
X18.1041Y-4.7766
X18.1238Y-3.4734
X18.1238Y-4.9734
X18.1312Y-2.15
X18.1812Y-3.525
X18.1812Y-5.025
X18.1828Y-2.0925
X18.3797Y-2.0728
X18.3812Y-2.05
T5
X1.8898Y-1.6929
X1.8898Y-4.8819
X4.5276Y-3.3858
X8.1102Y-5.4921
X17.2441Y-4.8819
X17.4409Y-1.6929
T0
M30
