M48
; DRILL file {KiCad (5.1.9)-1} date 04/19/21 22:21:12
; FORMAT={-:-/ absolute / inch / decimal}
; #@! TF.CreationDate,2021-04-19T22:21:12+02:00
; #@! TF.GenerationSoftware,Kicad,Pcbnew,(5.1.9)-1
; #@! TF.FileFunction,NonPlated,1,2,NPTH
FMAT,2
INCH
T1C0.0670
T2C0.0689
T3C0.1200
T4C0.1570
%
G90
G05
T1
X12.5625Y-3.175
X12.5625Y-3.575
T2
X1.0188Y-2.25
X1.0188Y-3.0
X1.0188Y-3.75
X1.0188Y-4.5
X1.0188Y-5.25
X1.4187Y-2.25
X1.4187Y-3.0
X1.4187Y-3.75
X1.4187Y-4.5
X1.4187Y-5.25
X1.9563Y-1.125
X1.9563Y-2.25
X2.05Y-4.5
X2.05Y-5.25
X2.1437Y-3.0
X2.2375Y-3.75
X2.3562Y-1.125
X2.3562Y-2.25
X2.45Y-4.5
X2.45Y-5.25
X2.5437Y-3.0
X2.6375Y-3.75
X2.7062Y-2.25
X2.8937Y-4.5
X2.9875Y-5.25
X3.0812Y-3.0
X3.1062Y-2.25
X3.2687Y-3.75
X3.2937Y-4.5
X3.3875Y-5.25
X3.4562Y-1.125
X3.4562Y-2.25
X3.4812Y-3.0
X3.6437Y-4.5
X3.6687Y-3.75
X3.8312Y-3.0
X3.8562Y-1.125
X3.8562Y-2.25
X3.925Y-5.25
X4.0187Y-3.75
X4.0438Y-4.5
X4.2062Y-1.125
X4.2062Y-2.25
X4.2313Y-3.0
X4.325Y-5.25
X4.3937Y-4.5
X4.4188Y-3.75
X4.5812Y-3.0
X4.6063Y-1.125
X4.6063Y-2.25
X4.7687Y-3.75
X4.7938Y-4.5
X4.9562Y-1.125
X4.9562Y-2.25
X4.9813Y-3.0
X5.1437Y-4.5
X5.1688Y-3.75
X5.3312Y-3.0
X5.3563Y-1.125
X5.3563Y-2.25
X5.5187Y-3.75
X5.5438Y-4.5
X5.7062Y-1.125
X5.7062Y-2.25
X5.7313Y-3.0
X5.8937Y-4.5
X5.9188Y-3.75
X6.0812Y-3.0
X6.1063Y-1.125
X6.1063Y-2.25
X6.2687Y-3.75
X6.2938Y-4.5
X6.4562Y-2.25
X6.4813Y-3.0
X6.6437Y-4.5
X6.6688Y-3.75
X6.6706Y-5.25
X6.8312Y-1.125
X6.8312Y-3.0
X6.8563Y-2.25
X7.0187Y-3.75
X7.0438Y-4.5
X7.0706Y-5.25
X7.2062Y-2.25
X7.2313Y-1.125
X7.2313Y-3.0
X7.3937Y-4.5
X7.4188Y-3.75
X7.5812Y-1.125
X7.5812Y-3.0
X7.6063Y-2.25
X7.7687Y-3.75
X7.7938Y-4.5
X7.9562Y-2.25
X7.9813Y-1.125
X7.9813Y-3.0
X8.1437Y-4.5
X8.1687Y-3.75
X8.3312Y-1.125
X8.3312Y-3.0
X8.3562Y-2.25
X8.5187Y-3.75
X8.5437Y-4.5
X8.7062Y-2.25
X8.7312Y-1.125
X8.7312Y-3.0
X8.8937Y-4.5
X8.9187Y-3.75
X9.0812Y-1.125
X9.0812Y-3.0
X9.1062Y-2.25
X9.2687Y-3.75
X9.2937Y-4.5
X9.4562Y-2.25
X9.4812Y-1.125
X9.4812Y-3.0
X9.55Y-5.25
X9.6437Y-4.5
X9.6687Y-3.75
X9.8312Y-3.0
X9.8562Y-2.25
X9.95Y-5.25
X10.0187Y-3.75
X10.0437Y-4.5
X10.2062Y-1.125
X10.2062Y-2.25
X10.2312Y-3.0
X10.3937Y-4.5
X10.4187Y-3.75
X10.4875Y-5.25
X10.5812Y-3.0
X10.6062Y-1.125
X10.6062Y-2.25
X10.7687Y-3.75
X10.7937Y-4.5
X10.8875Y-5.25
X10.9562Y-1.125
X10.9562Y-2.25
X10.9812Y-3.0
X11.1687Y-3.75
X11.3312Y-3.0
X11.3562Y-1.125
X11.3562Y-2.25
X11.425Y-5.25
X11.5187Y-3.75
X11.7062Y-1.125
X11.7312Y-3.0
X11.8Y-4.5
X11.825Y-5.25
X11.9187Y-3.75
X12.0812Y-2.25
X12.1062Y-1.125
X12.2Y-4.5
X12.3625Y-5.25
X12.4562Y-1.125
X12.4812Y-2.25
X12.7625Y-5.25
X12.8562Y-1.125
X13.3937Y-1.125
X13.3937Y-2.25
X13.3937Y-3.0
X13.3937Y-5.25
X13.7937Y-1.125
X13.7937Y-2.25
X13.7937Y-3.0
X13.7937Y-5.25
X14.1437Y-1.125
X14.1437Y-2.25
X14.1437Y-3.0
X14.1437Y-4.5
X14.1437Y-5.25
X14.5437Y-1.125
X14.5437Y-2.25
X14.5437Y-3.0
X14.5437Y-4.5
X14.5437Y-5.25
X14.8937Y-1.125
X14.8937Y-2.25
X14.8937Y-3.0
X14.8937Y-5.25
X15.2937Y-1.125
X15.2937Y-2.25
X15.2937Y-3.0
X15.2937Y-5.25
X15.8312Y-1.125
X15.8312Y-2.25
X15.8312Y-3.0
X15.8312Y-3.75
X15.8312Y-4.5
X16.2063Y-5.25
X16.2312Y-1.125
X16.2312Y-2.25
X16.2312Y-3.0
X16.2312Y-3.75
X16.2312Y-4.5
X16.5813Y-1.125
X16.5813Y-2.25
X16.5813Y-3.0
X16.5813Y-3.75
X16.5813Y-4.5
X16.6062Y-5.25
X16.9812Y-1.125
X16.9812Y-2.25
X16.9812Y-3.0
X16.9812Y-3.75
X16.9812Y-4.5
X17.3313Y-1.125
X17.3313Y-2.25
X17.3313Y-3.0
X17.3313Y-3.75
X17.3313Y-4.5
X17.3313Y-5.25
X17.7312Y-1.125
X17.7312Y-2.25
X17.7312Y-3.0
X17.7312Y-3.75
X17.7312Y-4.5
X17.7312Y-5.25
X18.0813Y-2.25
X18.2812Y-3.175
X18.2812Y-3.575
X18.2812Y-4.675
X18.2812Y-5.075
X18.4812Y-2.25
T3
X4.9021Y-4.975
X8.8391Y-4.975
X11.53Y-4.225
X11.8112Y-1.975
X12.2875Y-2.905
X12.2875Y-3.845
X12.47Y-4.225
X12.7512Y-1.975
X15.9362Y-4.975
X16.8762Y-4.975
X18.0062Y-2.905
X18.0062Y-3.845
X18.0062Y-4.405
X18.0062Y-5.345
T4
X1.2188Y-2.25
X1.2188Y-3.0
X1.2188Y-3.75
X1.2188Y-4.5
X1.2188Y-5.25
X2.1562Y-1.125
X2.1562Y-2.25
X2.25Y-4.5
X2.25Y-5.25
X2.3438Y-3.0
X2.4375Y-3.75
X2.9062Y-2.25
X3.0938Y-4.5
X3.1875Y-5.25
X3.2812Y-3.0
X3.4688Y-3.75
X3.6562Y-1.125
X3.6562Y-2.25
X3.8438Y-4.5
X4.0312Y-3.0
X4.125Y-5.25
X4.2188Y-3.75
X4.4062Y-1.125
X4.4062Y-2.25
X4.5938Y-4.5
X4.7812Y-3.0
X4.9021Y-5.575
X4.9688Y-3.75
X5.1562Y-1.125
X5.1562Y-2.25
X5.3438Y-4.5
X5.5312Y-3.0
X5.7188Y-3.75
X5.9062Y-1.125
X5.9062Y-2.25
X6.0938Y-4.5
X6.2812Y-3.0
X6.4688Y-3.75
X6.6562Y-2.25
X6.8438Y-4.5
X6.8706Y-5.25
X7.0312Y-1.125
X7.0312Y-3.0
X7.2188Y-3.75
X7.4062Y-2.25
X7.5938Y-4.5
X7.7812Y-1.125
X7.7812Y-3.0
X7.9688Y-3.75
X8.1562Y-2.25
X8.3438Y-4.5
X8.5312Y-1.125
X8.5312Y-3.0
X8.7188Y-3.75
X8.8391Y-5.575
X8.9062Y-2.25
X9.0938Y-4.5
X9.2812Y-1.125
X9.2812Y-3.0
X9.4688Y-3.75
X9.6562Y-2.25
X9.75Y-5.25
X9.8438Y-4.5
X10.0312Y-3.0
X10.2188Y-3.75
X10.4062Y-1.125
X10.4062Y-2.25
X10.5938Y-4.5
X10.6875Y-5.25
X10.7812Y-3.0
X10.9688Y-3.75
X11.1562Y-1.125
X11.1562Y-2.25
X11.53Y-4.825
X11.5312Y-3.0
X11.625Y-5.25
X11.7188Y-3.75
X11.8112Y-2.575
X11.9062Y-1.125
X12.0Y-4.5
X12.2812Y-2.25
X12.47Y-4.825
X12.5625Y-3.375
X12.5625Y-5.25
X12.6562Y-1.125
X12.7512Y-2.575
X12.8875Y-2.905
X12.8875Y-3.845
X13.5938Y-1.125
X13.5938Y-2.25
X13.5938Y-3.0
X13.5938Y-5.25
X14.3438Y-1.125
X14.3438Y-2.25
X14.3438Y-3.0
X14.3438Y-4.5
X14.3438Y-5.25
X15.0938Y-1.125
X15.0938Y-2.25
X15.0938Y-3.0
X15.0938Y-5.25
X15.9362Y-5.575
X16.0312Y-1.125
X16.0312Y-2.25
X16.0312Y-3.0
X16.0312Y-3.75
X16.0312Y-4.5
X16.4062Y-5.25
X16.7812Y-1.125
X16.7812Y-2.25
X16.7812Y-3.0
X16.7812Y-3.75
X16.7812Y-4.5
X16.8762Y-5.575
X17.5312Y-1.125
X17.5312Y-2.25
X17.5312Y-3.0
X17.5312Y-3.75
X17.5312Y-4.5
X17.5312Y-5.25
X18.2812Y-2.25
X18.2812Y-3.375
X18.2812Y-4.875
X18.6062Y-2.905
X18.6062Y-3.845
X18.6062Y-4.405
X18.6062Y-5.345
T0
M30
