G04 #@! TF.GenerationSoftware,KiCad,Pcbnew,(5.1.9)-1*
G04 #@! TF.CreationDate,2021-04-19T22:21:22+02:00*
G04 #@! TF.ProjectId,keyboard,6b657962-6f61-4726-942e-6b696361645f,rev?*
G04 #@! TF.SameCoordinates,Original*
G04 #@! TF.FileFunction,Paste,Top*
G04 #@! TF.FilePolarity,Positive*
%FSLAX46Y46*%
G04 Gerber Fmt 4.6, Leading zero omitted, Abs format (unit mm)*
G04 Created by KiCad (PCBNEW (5.1.9)-1) date 2021-04-19 22:21:22*
%MOMM*%
%LPD*%
G01*
G04 APERTURE LIST*
G04 APERTURE END LIST*
G36*
G01*
X472562500Y-29756250D02*
X472562500Y-29243750D01*
G75*
G02*
X472781250Y-29025000I218750J0D01*
G01*
X473218750Y-29025000D01*
G75*
G02*
X473437500Y-29243750I0J-218750D01*
G01*
X473437500Y-29756250D01*
G75*
G02*
X473218750Y-29975000I-218750J0D01*
G01*
X472781250Y-29975000D01*
G75*
G02*
X472562500Y-29756250I0J218750D01*
G01*
G37*
G36*
G01*
X470987500Y-29756250D02*
X470987500Y-29243750D01*
G75*
G02*
X471206250Y-29025000I218750J0D01*
G01*
X471643750Y-29025000D01*
G75*
G02*
X471862500Y-29243750I0J-218750D01*
G01*
X471862500Y-29756250D01*
G75*
G02*
X471643750Y-29975000I-218750J0D01*
G01*
X471206250Y-29975000D01*
G75*
G02*
X470987500Y-29756250I0J218750D01*
G01*
G37*
G36*
G01*
X454062500Y-41256250D02*
X454062500Y-40743750D01*
G75*
G02*
X454281250Y-40525000I218750J0D01*
G01*
X454718750Y-40525000D01*
G75*
G02*
X454937500Y-40743750I0J-218750D01*
G01*
X454937500Y-41256250D01*
G75*
G02*
X454718750Y-41475000I-218750J0D01*
G01*
X454281250Y-41475000D01*
G75*
G02*
X454062500Y-41256250I0J218750D01*
G01*
G37*
G36*
G01*
X452487500Y-41256250D02*
X452487500Y-40743750D01*
G75*
G02*
X452706250Y-40525000I218750J0D01*
G01*
X453143750Y-40525000D01*
G75*
G02*
X453362500Y-40743750I0J-218750D01*
G01*
X453362500Y-41256250D01*
G75*
G02*
X453143750Y-41475000I-218750J0D01*
G01*
X452706250Y-41475000D01*
G75*
G02*
X452487500Y-41256250I0J218750D01*
G01*
G37*
G36*
G01*
X457987500Y-41256250D02*
X457987500Y-40743750D01*
G75*
G02*
X458206250Y-40525000I218750J0D01*
G01*
X458643750Y-40525000D01*
G75*
G02*
X458862500Y-40743750I0J-218750D01*
G01*
X458862500Y-41256250D01*
G75*
G02*
X458643750Y-41475000I-218750J0D01*
G01*
X458206250Y-41475000D01*
G75*
G02*
X457987500Y-41256250I0J218750D01*
G01*
G37*
G36*
G01*
X459562500Y-41256250D02*
X459562500Y-40743750D01*
G75*
G02*
X459781250Y-40525000I218750J0D01*
G01*
X460218750Y-40525000D01*
G75*
G02*
X460437500Y-40743750I0J-218750D01*
G01*
X460437500Y-41256250D01*
G75*
G02*
X460218750Y-41475000I-218750J0D01*
G01*
X459781250Y-41475000D01*
G75*
G02*
X459562500Y-41256250I0J218750D01*
G01*
G37*
G36*
G01*
X463275000Y-41256250D02*
X463275000Y-40743750D01*
G75*
G02*
X463493750Y-40525000I218750J0D01*
G01*
X463931250Y-40525000D01*
G75*
G02*
X464150000Y-40743750I0J-218750D01*
G01*
X464150000Y-41256250D01*
G75*
G02*
X463931250Y-41475000I-218750J0D01*
G01*
X463493750Y-41475000D01*
G75*
G02*
X463275000Y-41256250I0J218750D01*
G01*
G37*
G36*
G01*
X464850000Y-41256250D02*
X464850000Y-40743750D01*
G75*
G02*
X465068750Y-40525000I218750J0D01*
G01*
X465506250Y-40525000D01*
G75*
G02*
X465725000Y-40743750I0J-218750D01*
G01*
X465725000Y-41256250D01*
G75*
G02*
X465506250Y-41475000I-218750J0D01*
G01*
X465068750Y-41475000D01*
G75*
G02*
X464850000Y-41256250I0J218750D01*
G01*
G37*
G36*
G01*
X467710000Y-29685000D02*
X467710000Y-29315000D01*
G75*
G02*
X467845000Y-29180000I135000J0D01*
G01*
X468115000Y-29180000D01*
G75*
G02*
X468250000Y-29315000I0J-135000D01*
G01*
X468250000Y-29685000D01*
G75*
G02*
X468115000Y-29820000I-135000J0D01*
G01*
X467845000Y-29820000D01*
G75*
G02*
X467710000Y-29685000I0J135000D01*
G01*
G37*
G36*
G01*
X468730000Y-29685000D02*
X468730000Y-29315000D01*
G75*
G02*
X468865000Y-29180000I135000J0D01*
G01*
X469135000Y-29180000D01*
G75*
G02*
X469270000Y-29315000I0J-135000D01*
G01*
X469270000Y-29685000D01*
G75*
G02*
X469135000Y-29820000I-135000J0D01*
G01*
X468865000Y-29820000D01*
G75*
G02*
X468730000Y-29685000I0J135000D01*
G01*
G37*
G36*
G01*
X452565000Y-39230000D02*
X452935000Y-39230000D01*
G75*
G02*
X453070000Y-39365000I0J-135000D01*
G01*
X453070000Y-39635000D01*
G75*
G02*
X452935000Y-39770000I-135000J0D01*
G01*
X452565000Y-39770000D01*
G75*
G02*
X452430000Y-39635000I0J135000D01*
G01*
X452430000Y-39365000D01*
G75*
G02*
X452565000Y-39230000I135000J0D01*
G01*
G37*
G36*
G01*
X452565000Y-38210000D02*
X452935000Y-38210000D01*
G75*
G02*
X453070000Y-38345000I0J-135000D01*
G01*
X453070000Y-38615000D01*
G75*
G02*
X452935000Y-38750000I-135000J0D01*
G01*
X452565000Y-38750000D01*
G75*
G02*
X452430000Y-38615000I0J135000D01*
G01*
X452430000Y-38345000D01*
G75*
G02*
X452565000Y-38210000I135000J0D01*
G01*
G37*
G36*
G01*
X458065000Y-38210000D02*
X458435000Y-38210000D01*
G75*
G02*
X458570000Y-38345000I0J-135000D01*
G01*
X458570000Y-38615000D01*
G75*
G02*
X458435000Y-38750000I-135000J0D01*
G01*
X458065000Y-38750000D01*
G75*
G02*
X457930000Y-38615000I0J135000D01*
G01*
X457930000Y-38345000D01*
G75*
G02*
X458065000Y-38210000I135000J0D01*
G01*
G37*
G36*
G01*
X458065000Y-39230000D02*
X458435000Y-39230000D01*
G75*
G02*
X458570000Y-39365000I0J-135000D01*
G01*
X458570000Y-39635000D01*
G75*
G02*
X458435000Y-39770000I-135000J0D01*
G01*
X458065000Y-39770000D01*
G75*
G02*
X457930000Y-39635000I0J135000D01*
G01*
X457930000Y-39365000D01*
G75*
G02*
X458065000Y-39230000I135000J0D01*
G01*
G37*
G36*
G01*
X463315000Y-39230000D02*
X463685000Y-39230000D01*
G75*
G02*
X463820000Y-39365000I0J-135000D01*
G01*
X463820000Y-39635000D01*
G75*
G02*
X463685000Y-39770000I-135000J0D01*
G01*
X463315000Y-39770000D01*
G75*
G02*
X463180000Y-39635000I0J135000D01*
G01*
X463180000Y-39365000D01*
G75*
G02*
X463315000Y-39230000I135000J0D01*
G01*
G37*
G36*
G01*
X463315000Y-38210000D02*
X463685000Y-38210000D01*
G75*
G02*
X463820000Y-38345000I0J-135000D01*
G01*
X463820000Y-38615000D01*
G75*
G02*
X463685000Y-38750000I-135000J0D01*
G01*
X463315000Y-38750000D01*
G75*
G02*
X463180000Y-38615000I0J135000D01*
G01*
X463180000Y-38345000D01*
G75*
G02*
X463315000Y-38210000I135000J0D01*
G01*
G37*
M02*
